# xmcd
#
# Track frame offsets:
#	150
#	14945
#	44422
#	59705
#	72802
#	88165
#	107577
#	131835
#	147807
#	165727
#	183552
#	198627
#
# Disc length: 2796 seconds
#
# Revision: 1
# Processed by: cddbd v1.5.2PL0 Copyright (c) Steve Scherf et al.
# Submitted via: audiograbber 1.83.01
#
DISCID=bc0aea0c
DTITLE=Various Artist - CDX 38 August 1992
DYEAR=1992
DGENRE=Country
TTITLE0=Shucks - After All
TTITLE1=Brooks and Dunn - Boot Scootin' Boogie (Dance Mix)
TTITLE2=Billy Dean - If There Hadn't Been You
TTITLE3=Mike Reid - Keep On Walkin'
TTITLE4=Cimmaron - Long Ride Back
TTITLE5=Travis Tritt - Lord Have Mercy On The Working Man
TTITLE6=Toy Caldwell - Midnight Promises
TTITLE7=Dennis Robbins - My Side Of Town
TTITLE8=Wynonna Judd - No One Else On Earth
TTITLE9=Darryl and Don Ellis - No Sir
TTITLE10=Mac McAnally - The Trouble With Diamonds
TTITLE11=Neal McCoy - There Ain't Nothin' I Don't Like
EXTD=
EXTT0=
EXTT1=
EXTT2=
EXTT3=
EXTT4=
EXTT5=
EXTT6=
EXTT7=
EXTT8=
EXTT9=
EXTT10=
EXTT11=
PLAYORDER=
